<svg width="144" height="279" viewBox="0 0 144 279" fill="none" xmlns="http://www.w3.org/2000/svg"> <path d="M144 208.243C144 247.227 111.724 278.809 72.4965 278.809H71.5034C32.2759 278.809 0 247.227 0 208.243V70.5657C0 31.5818 32.2759 0 71.5034 0H72.4965C111.724 0 144 31.5818 144 70.5657V208.243Z" fill="#00385A"></path> <path d="M114.695 204.796C111.716 204.796 109.233 202.329 108.736 200.355C107.743 197.394 109.233 195.42 110.226 192.46C106.75 191.966 103.771 189.992 102.281 186.538C101.785 184.564 103.274 182.59 103.274 180.616C99.7986 180.616 96.8192 179.629 94.833 176.175C93.3434 173.708 94.833 171.241 95.8261 168.28C91.8537 167.786 87.3847 165.812 87.8813 161.865V161.371C88.3778 159.891 88.3778 158.41 89.8675 156.437C87.3847 155.45 86.3916 155.943 83.4123 152.489C81.4261 150.021 83.4123 144.593 85.3985 144.593C82.9158 144.593 79.9365 142.619 78.9434 140.646V140.152C76.9571 137.191 79.9365 131.27 83.9089 130.283C82.9158 129.789 79.4399 125.348 80.433 121.894C81.4261 118.933 84.902 117.453 88.3779 116.959C84.902 111.038 89.371 103.636 96.3227 105.116C95.3296 102.155 94.833 99.6879 96.3227 96.7271C97.8123 94.2598 100.792 93.2729 103.771 93.2729C102.778 90.8055 101.785 88.3382 102.778 85.3774C104.267 82.4166 106.75 79.9493 110.723 79.9493C106.75 74.5211 106.254 67.6126 114.199 65.1453C112.212 64.1584 110.226 62.678 109.233 60.2106C106.75 55.276 110.226 51.8217 113.205 48.8609C106.254 48.8609 102.778 41.4589 105.757 35.5373C101.785 38.0046 91.8537 37.0177 91.3572 29.6157C89.3709 33.07 85.3985 35.0438 81.4261 33.5634C79.4399 33.07 76.9571 30.1092 75.4675 27.6418C70.5019 35.5373 63.5502 35.5373 54.6123 38.4981C46.6675 40.9654 46.6675 49.8478 48.1571 54.7825C50.6399 62.1845 50.1433 59.7172 50.1433 61.1975L49.6468 62.1845C44.6813 68.1061 36.2399 70.5734 27.3019 71.5603H26.8054C21.3433 73.0407 28.295 80.9362 31.7709 81.9231C40.7088 84.3905 47.6606 77.9754 55.6054 71.5603H56.102C60.0744 75.5081 62.0606 78.4689 66.5296 76.9885C66.5296 76.9885 66.5295 76.9885 67.0261 76.9885C69.0123 76.495 70.9985 75.5081 72.9847 74.0277C74.9709 72.5473 77.4537 70.5734 78.9434 70.0799H79.4399H79.9364C81.4261 71.0669 80.9296 73.0407 79.4399 74.0277L78.9434 74.5211C66.5296 86.8578 53.1227 90.8055 39.2192 101.168C22.3364 115.479 18.364 137.685 30.7778 154.956C45.1778 174.695 66.033 182.097 84.902 195.914C94.3365 202.822 102.281 212.198 99.7985 224.041C96.3227 240.819 75.9641 247.728 61.564 237.858C58.0882 235.391 56.102 231.937 55.1088 227.496C53.6192 221.081 61.0675 213.679 67.5226 217.626C64.0468 219.6 62.5571 224.535 66.033 227.002C69.5089 229.963 73.9778 227.496 74.9709 224.041C76.9571 219.107 73.4813 213.679 68.0192 212.692C64.0468 211.705 60.5709 212.198 57.0951 214.172C49.6468 219.107 47.6606 227.989 51.633 235.391C57.0951 246.247 69.5089 250.689 81.9227 249.702V249.208C82.4192 248.715 82.4192 248.221 82.9158 247.728C85.3985 245.26 88.8744 247.728 88.8744 248.221C89.3709 243.78 92.3503 242.793 96.8192 244.767C96.3227 239.832 100.295 237.365 104.268 238.845C103.274 233.911 105.261 229.963 111.716 229.963C109.73 226.509 110.226 224.535 110.723 222.561C111.219 221.081 113.205 219.107 115.192 218.12C108.736 214.172 110.723 208.251 114.695 204.796Z" fill="white"></path> </svg>