<svg id="Group_9" data-name="Group 9" xmlns="http://www.w3.org/2000/svg" xmlns:xlink="http://www.w3.org/1999/xlink" width="208.669" height="64.7" viewBox="0 0 208.669 64.7">
  <defs>
    <clipPath id="clip-path">
      <rect id="Rectangle_1" data-name="Rectangle 1" width="208.669" height="64.7" fill="#fff"/>
    </clipPath>
  </defs>
  <g id="Group_1" data-name="Group 1" clip-path="url(#clip-path)">
    <path id="Path_1" data-name="Path 1" d="M108.392,25.4c.1-.322-.009-1.039-1-1.395a1.456,1.456,0,0,0-1.649.395c-1.121,1.675-1.5,4.086-6.314,8.425a19.809,19.809,0,0,1-5.221,3.535c-.7.2-1.469-.015-1.526-.9-.31-4.759,4.824-8.987,6.064-9.7,2.923-1.684,4.775-1.706,5.664-1.619s1.4-1.507.705-2.053-2.091-.787-5.9.406a15.808,15.808,0,0,0-6.381,4.561C89.55,30.709,88.524,36.064,90.3,38.51a2.65,2.65,0,0,0,2.313,1.051c.008,0,.012,0,.019,0h.014a6.319,6.319,0,0,0,1.931-.385,15.438,15.438,0,0,0,7.07-4.725c.269-.288.318-.124.319-.071.048,1.343-.357,3.356-.216,4.688.115,1.1.884,1.331,1.788,1.3s1.3-.447,1.32-.966a36.721,36.721,0,0,1,2.956-12.526c.129-.329.408-.961.573-1.478m16.653-.368a1.805,1.805,0,0,0,1.622-.414c.482-.5-.347-3.282-1.554-3.129-2.224.281-4.83,1.939-7.737,4.233-.378.3.693-1.787-1.469-2.277-.656-.149-1.109-.312-1.246.251-1.324,5.657-5.245,9.694-5.807,15.353a1.635,1.635,0,0,0,1.224,1.411A2.059,2.059,0,0,0,112.5,39.6c.752-3.2,1.137-5.545,2.6-7.654,1.879-2.711,5.118-4.946,8.8-7.252.387-.244.732.141,1.147.334M88.629,8.866c-6.023,7.944-11,15.208-15.185,23.631a.177.177,0,0,1-.282-.094,12.262,12.262,0,0,1,.319-2.872c1.01-7.066.947-11.712,2.812-19.2.128-.527-2.408-1.735-3.151-.711-.688.928-1.228,2.091-1.785,3.017-5.746,9.539-11.2,19.512-14.457,29.169-.556,1.652,2.585,2.162,3.251.966.143-.385.284-.755.417-1.108.752-1.953,1.3-3.312,1.361-3.429,1.149-2.439,1.917-4.374,2.984-6.577,1.96-4.058,2.835-5.765,5.854-11.7.04-.083.112-.014.109.1-.5,8.158-1.6,18.171-1.632,18.552-.075,1.6,3.253,2.5,4.161,1.133,3.91-5.883,5.856-11.781,10.241-17.624.146-.193,1.078-1.339.87-.529a217.293,217.293,0,0,0-5.274,27.691l-.061.217c.084,0-.155,1.516-.076,1.516-.031,2.1,3.024,2.175,3.287-.122C83.856,38.165,88.4,22.385,91.419,9.874c.064-.273-2.276-1.684-2.79-1.008M29.342,24.005a1.459,1.459,0,0,0-1.65.395c-1.12,1.675-1.5,4.086-6.315,8.425a19.844,19.844,0,0,1-5.218,3.535c-.7.2-1.472-.015-1.527-.9-.31-4.759,4.823-8.987,6.066-9.7,2.923-1.684,4.773-1.706,5.663-1.619s1.4-1.507.7-2.053-2.09-.787-5.9.406a15.8,15.8,0,0,0-6.383,4.561c-3.287,3.653-4.314,9.009-2.53,11.454a2.648,2.648,0,0,0,2.312,1.051c.005,0,.01,0,.019,0H14.6a6.34,6.34,0,0,0,1.933-.385A15.429,15.429,0,0,0,23.6,34.453c.27-.288.32-.124.322-.071.048,1.343-.358,3.356-.217,4.688.115,1.1.883,1.331,1.789,1.3s1.3-.447,1.319-.966a36.718,36.718,0,0,1,2.955-12.526c.13-.329.409-.961.576-1.478.1-.322-.01-1.039-1-1.395M25.111,1.335C25.3.347,22.967-.573,22.282.441,19.14,5.095,14.5,12.614,10.781,19.477,7.894,24.8,5.686,29.621,3.952,32.812a.178.178,0,0,1-.286-.078A149.74,149.74,0,0,1,5.913,10.9c.368-1.534-2.49-1.982-3.194-.928C2.07,10.93,1,19.433.821,21.206A164.044,164.044,0,0,0,.005,39.1c-.017,1.6,3.35,2.364,4.2.96,1.626-2.669,5.361-10.378,9.62-18.193C19.2,12.009,24.994,1.95,25.111,1.335m23.368,22.62c-.635-.31-1.718-.793-2.379-.473l-.517.295c-3.814,2.407-6.632,5.379-9.622,7.861-.068.054-.132-.093-.1-.217a31.421,31.421,0,0,1,2.052-5.607c.219-.438-.207-1.092-.884-1.32a1.349,1.349,0,0,0-1.657.479c-2.169,4.275-3.625,9.2-5.184,13.631a1.218,1.218,0,0,0,.606,1.449,1.525,1.525,0,0,0,1.7.028c3.387-4.146,6.975-8.337,12-11.441.087-.056.274.022.246.261a10.617,10.617,0,0,1-.591,1.849A56.7,56.7,0,0,0,40.694,47.4c0,2.162,3.473.9,3.521.139a51.856,51.856,0,0,1,1.818-11.226c1.022-3.653,2.86-10.423,2.872-11.9,0-.162-.278-.387-.426-.459M157.085,39.745c4.682.446,6.788-.929,10.622-3.634a1.258,1.258,0,0,0-.173-1.876c-.666-.436-1.158-.249-1.8.151a15.474,15.474,0,0,1-3.1,1.912,9.718,9.718,0,0,1-5.077.661c-1.969-.422-1.188-3.216-.5-3.216,5.111,0,8.037-1.005,10.612-4.529a4.373,4.373,0,0,0,.631-4.576c-.574-1.038-2.66-3.076-5.9-1.2-5.07,3.178-8.045,6.855-9.1,11.072a4.16,4.16,0,0,0,3.795,5.233m1.131-9.156a22.265,22.265,0,0,1,2.325-2.48c.662-.609,3.626-3.224,4.788-2.2s-.216,2.934-1.876,4.076a10.875,10.875,0,0,1-5.1,1.344c-.5-.022-.448-.313-.138-.744M140.285,41.4c.34-1.376.437-2.2,1.5-5.871.057-.206.224-.738.472-1.478.292-.876.356-.717.558-.573,3.816,4.686,8.58,11.024,13.436,16.339a1.447,1.447,0,0,0,1.716.279,1.2,1.2,0,0,0,.434-1.7c-4.26-5.73-13.894-16.975-13.7-17.468s5.694-4.113,9.386-6.079c.745-.458.924-1.134.211-2.025s-1.936-.342-2.348-.105c-2.966,1.709-7.174,4.7-7.48,4.52s5.717-12.323,8.5-19.179a1.38,1.38,0,0,0-1.01-1.7,1.769,1.769,0,0,0-2.048.706c-2.05,3.989-5.074,10.795-7.505,17.007-2.052,5.24-3.636,10.114-4.241,12.116,0,0-.916,3.3-1.227,4.719a1.684,1.684,0,0,0,1.5,1.773,1.776,1.776,0,0,0,1.845-1.281m-7.01-4.756a6.094,6.094,0,0,0,1.4-1.667,1.079,1.079,0,0,0-.426-1.355,1.761,1.761,0,0,0-2.278.178,13.117,13.117,0,0,1-3.723,2.846c-.7.194-1.456.008-1.514-.875-.307-4.757,4.951-8.913,6.126-9.732a11.822,11.822,0,0,1,4.806-1.8c.889.089.963-1.474.07-1.981-.615-.326-2.594-.217-4.406.513a18.58,18.58,0,0,0-6.445,4.591c-3.285,3.654-4.31,9.012-2.528,11.456,1.869,2.559,6.576-.068,8.918-2.176M194.229,7.9h-.173a14.432,14.432,0,0,0-14.441,14.381V50.318A14.429,14.429,0,0,0,194.056,64.7h.173a14.428,14.428,0,0,0,14.44-14.383V22.282A14.431,14.431,0,0,0,194.229,7.9m7.734,45.255a1.694,1.694,0,0,0,.185,1.533c-1.336,0-1.733.821-1.487,1.823-.852-.239-1.673.2-1.549,1.249-.852-.385-1.46-.2-1.566.714a.777.777,0,0,0-1.175-.063,1.246,1.246,0,0,0-.188.313l-.023.1c-2.49.207-5.022-.709-6.1-2.923a3.328,3.328,0,0,1,1.146-4.334,2.717,2.717,0,0,1,2.177-.325,1.817,1.817,0,0,1,1.408,2.359,1.2,1.2,0,0,1-1.854.6,1.173,1.173,0,0,1,.334-1.906c-1.311-.733-2.791.754-2.514,2.057a3.173,3.173,0,0,0,1.309,2.062c2.859,1.974,7.036.66,7.714-2.8.492-2.495-1.11-4.38-3.022-5.775-3.883-2.825-8.12-4.286-10.986-8.35a7.606,7.606,0,0,1,1.867-10.712c2.8-2.115,5.513-2.943,8.046-5.419l.06-.061c.259-.215.339-.6.081-.766-.031-.021-.076-.012-.114-.017l-.1.032-.039.012a8.78,8.78,0,0,0-1.24.781,3.189,3.189,0,0,1-1.159.593.285.285,0,0,1-.053.014c-.948.245-1.374-.3-2.128-1.108-.016-.012-.1-.041-.122-.012l-.044.012c-1.617,1.329-2.967,2.679-4.819,2.132-.731-.221-2.113-1.847-1.02-2.1l.1-.042a6.638,6.638,0,0,0,4.566-1.932l.118-.214c-.059-.38.091.185-.425-1.337a2.429,2.429,0,0,1,1.3-3.281c1.737-.583,3.194-.551,4.2-2.163a3.271,3.271,0,0,0,1.228,1.162,1.757,1.757,0,0,0,2.059-.793c.095,1.44,2.064,1.671,2.916,1.185a1.766,1.766,0,0,0,1.459,2.679c-.645.609-1.348,1.332-.826,2.293a2.573,2.573,0,0,0,1.039.957c-1.542.452-1.487,1.885-.667,2.979a1.574,1.574,0,0,0-1.58,1.076A1.91,1.91,0,0,0,200.691,27a1.824,1.824,0,0,0-1.543.751,1.982,1.982,0,0,0-.038,1.682,1.575,1.575,0,0,0-1.578,2.428,1.687,1.687,0,0,0-1.56.982,1.948,1.948,0,0,0,.69,1.717,1.63,1.63,0,0,0-1.023,2.039l.047.089a1.634,1.634,0,0,0,1.263.821c-.353-.006-.757,1.124-.4,1.638.552.705.8.589,1.28.761a2.27,2.27,0,0,0-.353.988l-.025.08c-.008.841.87,1.229,1.655,1.334-.245.535-.494,1.032-.211,1.568a1.87,1.87,0,0,0,1.664.868c-.037.411-.373.765-.234,1.214a1.859,1.859,0,0,0,1.575,1.216c-.22.531-.556,1.009-.33,1.565a1.466,1.466,0,0,0,1.241.9c-.817.7-1.214,1.826.033,2.646a1.973,1.973,0,0,0-.887.866m-36.786-3.093a.859.859,0,0,0-.266-.166.969.969,0,0,0,.65-.286.835.835,0,0,0,.245-.6.8.8,0,0,0-.147-.459.774.774,0,0,0-.394-.3,2.632,2.632,0,0,0-.8-.087h-1.077V51.3h.506V49.967h.3a.65.65,0,0,1,.405.108,2.528,2.528,0,0,1,.529.729l.278.494h.618l-.382-.614a3.588,3.588,0,0,0-.463-.621m-.668-.529h-.614v-.946h.575a1.589,1.589,0,0,1,.508.054.46.46,0,0,1,.214.164.45.45,0,0,1-.083.6.99.99,0,0,1-.6.131m1.59-2.383a2.913,2.913,0,0,0-2.864,0,2.687,2.687,0,0,0-1.09,1.077,2.913,2.913,0,0,0-.006,2.908,2.72,2.72,0,0,0,1.079,1.079,2.927,2.927,0,0,0,2.9,0,2.707,2.707,0,0,0,1.077-1.079,2.926,2.926,0,0,0-.006-2.908,2.674,2.674,0,0,0-1.088-1.077m1,2.538a2.451,2.451,0,0,1-.32,1.206,2.274,2.274,0,0,1-.9.9,2.425,2.425,0,0,1-2.416,0,2.287,2.287,0,0,1-.9-.9,2.421,2.421,0,0,1,.006-2.424,2.256,2.256,0,0,1,.909-.9,2.422,2.422,0,0,1,2.387,0,2.24,2.24,0,0,1,.909.9,2.466,2.466,0,0,1,.326,1.218" transform="translate(0 0)" fill="#fff"/>
  </g>
</svg>
