<svg id="Group_3" data-name="Group 3" xmlns="http://www.w3.org/2000/svg" xmlns:xlink="http://www.w3.org/1999/xlink" width="264.6" height="82.042" viewBox="0 0 264.6 82.042">
  <defs>
    <clipPath id="clip-path">
      <rect id="Rectangle_1" data-name="Rectangle 1" width="264.6" height="82.042" fill="#002b48"/>
    </clipPath>
  </defs>
  <g id="Group_1" data-name="Group 1" clip-path="url(#clip-path)">
    <path id="Path_1" data-name="Path 1" d="M137.445,32.208c.132-.408-.012-1.318-1.264-1.768a1.847,1.847,0,0,0-2.091.5c-1.422,2.124-1.9,5.181-8.006,10.683a25.118,25.118,0,0,1-6.62,4.482c-.884.257-1.863-.019-1.935-1.136-.393-6.035,6.117-11.4,7.689-12.3,3.707-2.135,6.055-2.163,7.182-2.054s1.779-1.912.894-2.6-2.651-1-7.482.514c-2.791.871-5.756,3.188-8.092,5.784-4.168,4.632-5.469,11.423-3.211,14.525a3.361,3.361,0,0,0,2.933,1.333c.01,0,.015,0,.024,0h.017a8.013,8.013,0,0,0,2.449-.489,19.576,19.576,0,0,0,8.966-5.991c.341-.365.4-.157.4-.089.061,1.7-.452,4.255-.274,5.945.146,1.391,1.121,1.687,2.267,1.648s1.648-.566,1.674-1.225c.151-5.488,1.671-10.6,3.749-15.884.164-.417.518-1.219.726-1.874m21.117-.467a2.289,2.289,0,0,0,2.057-.526c.612-.63-.441-4.162-1.971-3.967-2.82.356-6.125,2.459-9.811,5.368-.48.384.879-2.266-1.863-2.888-.832-.189-1.406-.395-1.579.318-1.678,7.174-6.651,12.293-7.363,19.468a2.073,2.073,0,0,0,1.551,1.789c1.219.453,2.887-.317,3.069-1.084.954-4.057,1.442-7.031,3.295-9.706,2.383-3.437,6.49-6.271,11.161-9.2.49-.31.928.179,1.454.423m-46.177-20.5c-7.637,10.073-13.948,19.284-19.255,29.965a.225.225,0,0,1-.357-.119,15.549,15.549,0,0,1,.4-3.642c1.281-8.96,1.2-14.851,3.566-24.343.162-.669-3.053-2.2-4-.9-.873,1.177-1.557,2.651-2.264,3.826C83.2,28.124,76.277,40.77,72.153,53.015c-.706,2.1,3.277,2.741,4.122,1.225.181-.488.36-.958.528-1.405.953-2.476,1.654-4.2,1.726-4.348,1.457-3.093,2.43-5.547,3.783-8.34C84.8,35,85.908,32.836,89.737,25.3c.051-.105.143-.017.138.13-.64,10.344-2.03,23.041-2.069,23.524-.1,2.029,4.125,3.168,5.276,1.437,4.958-7.459,7.425-14.939,12.985-22.347.185-.245,1.367-1.7,1.1-.67a275.536,275.536,0,0,0-6.688,35.113l-.077.275c.106-.006-.2,1.922-.1,1.922-.039,2.66,3.834,2.758,4.168-.155,1.855-16.139,7.619-36.148,11.446-52.013.081-.346-2.886-2.135-3.538-1.278M37.207,30.44a1.85,1.85,0,0,0-2.093.5c-1.42,2.124-1.9,5.181-8.007,10.683a25.163,25.163,0,0,1-6.616,4.482c-.886.257-1.866-.019-1.937-1.136-.393-6.035,6.116-11.4,7.692-12.3,3.706-2.135,6.053-2.163,7.18-2.054s1.78-1.912.894-2.6-2.65-1-7.481.514c-2.793.871-5.758,3.188-8.094,5.784-4.168,4.632-5.47,11.423-3.209,14.525a3.357,3.357,0,0,0,2.932,1.333c.007,0,.013,0,.024,0h.015a8.039,8.039,0,0,0,2.451-.489,19.565,19.565,0,0,0,8.962-5.991c.343-.365.406-.157.408-.089.061,1.7-.453,4.255-.275,5.945.146,1.391,1.12,1.687,2.269,1.648s1.646-.566,1.672-1.225c.152-5.488,1.669-10.6,3.747-15.884.165-.417.519-1.219.73-1.874.132-.408-.012-1.318-1.264-1.768M31.842,1.693C32.078.44,29.123-.726,28.254.56,24.271,6.46,18.393,15.995,13.671,24.7c-3.661,6.748-6.461,12.863-8.66,16.91a.226.226,0,0,1-.363-.1c-.208-.874.871-18.1,2.85-27.686.466-1.945-3.158-2.513-4.05-1.176-.823,1.214-2.174,12-2.406,14.245A208.015,208.015,0,0,0,.007,49.575c-.022,2.03,4.248,3,5.325,1.218,2.061-3.384,6.8-13.16,12.2-23.069,6.811-12.5,14.162-25.251,14.311-26.03M61.473,30.376c-.805-.393-2.178-1.005-3.016-.6l-.656.374c-4.836,3.052-8.409,6.82-12.2,9.968-.087.069-.168-.118-.122-.275a39.842,39.842,0,0,1,2.6-7.109c.278-.555-.263-1.385-1.121-1.674a1.71,1.71,0,0,0-2.1.607c-2.75,5.42-4.6,11.662-6.574,17.285a1.545,1.545,0,0,0,.769,1.837,1.934,1.934,0,0,0,2.149.035c4.3-5.258,8.845-10.571,15.222-14.508.111-.071.348.028.312.33a13.463,13.463,0,0,1-.749,2.345A71.892,71.892,0,0,0,51.6,60.111c0,2.742,4.4,1.141,4.465.177a65.756,65.756,0,0,1,2.306-14.235c1.3-4.632,3.627-13.217,3.642-15.095,0-.205-.353-.491-.54-.582M199.19,50.4c5.937.565,8.608-1.178,13.469-4.608a1.6,1.6,0,0,0-.219-2.379c-.845-.553-1.468-.316-2.287.191a19.622,19.622,0,0,1-3.933,2.424,12.322,12.322,0,0,1-6.438.838c-2.5-.535-1.507-4.078-.64-4.078,6.481,0,10.191-1.275,13.456-5.744a5.545,5.545,0,0,0,.8-5.8c-.728-1.316-3.372-3.9-7.476-1.518-6.429,4.03-10.2,8.693-11.544,14.04A5.275,5.275,0,0,0,199.19,50.4m1.434-11.61a28.232,28.232,0,0,1,2.948-3.145c.839-.772,4.6-4.088,6.072-2.785s-.274,3.721-2.379,5.168c-2.089,1.44-5.8,1.731-6.466,1.7-.634-.028-.568-.4-.175-.943M177.886,52.5c.431-1.745.555-2.784,1.9-7.444.072-.262.284-.935.6-1.874.37-1.11.451-.91.708-.727,4.839,5.942,10.88,13.978,17.038,20.718a1.835,1.835,0,0,0,2.176.354,1.521,1.521,0,0,0,.551-2.152c-5.4-7.266-17.618-21.525-17.37-22.15s7.22-5.215,11.9-7.709c.944-.581,1.171-1.438.267-2.568s-2.455-.434-2.977-.134c-3.761,2.167-9.1,5.954-9.485,5.731s7.249-15.626,10.779-24.32a1.75,1.75,0,0,0-1.281-2.156,2.244,2.244,0,0,0-2.6.9c-2.6,5.058-6.434,13.688-9.517,21.566-2.6,6.645-4.611,12.825-5.378,15.363,0,0-1.162,4.189-1.555,5.984a2.136,2.136,0,0,0,1.9,2.248,2.252,2.252,0,0,0,2.339-1.625M169,46.467a7.726,7.726,0,0,0,1.777-2.114,1.368,1.368,0,0,0-.54-1.718,2.232,2.232,0,0,0-2.889.226c-1.472,1.51-3.705,3.328-4.721,3.608-.893.246-1.846.01-1.919-1.109-.389-6.032,6.278-11.3,7.768-12.34s4.967-2.391,6.094-2.282,1.221-1.869.089-2.512c-.779-.413-3.29-.276-5.587.651A23.56,23.56,0,0,0,160.9,34.7c-4.166,4.634-5.466,11.427-3.206,14.526,2.37,3.244,8.339-.086,11.308-2.759m77.292-36.448h-.219a18.3,18.3,0,0,0-18.312,18.235V63.8a18.3,18.3,0,0,0,18.312,18.238h.219A18.3,18.3,0,0,0,264.6,63.8V28.254a18.3,18.3,0,0,0-18.31-18.235M256.1,67.4a2.148,2.148,0,0,0,.235,1.943c-1.694,0-2.2,1.04-1.886,2.311-1.081-.3-2.122.251-1.965,1.583-1.081-.488-1.851-.255-1.986.9a.985.985,0,0,0-1.49-.08,1.581,1.581,0,0,0-.239.4l-.029.125c-3.158.263-6.368-.9-7.73-3.706a4.22,4.22,0,0,1,1.453-5.5,3.445,3.445,0,0,1,2.76-.412,2.3,2.3,0,0,1,1.786,2.992,1.521,1.521,0,0,1-2.351.756,1.487,1.487,0,0,1,.424-2.417c-1.662-.929-3.539.956-3.188,2.609a4.023,4.023,0,0,0,1.66,2.614c3.625,2.5,8.921.837,9.782-3.545.623-3.163-1.407-5.554-3.832-7.323-4.924-3.582-10.3-5.435-13.93-10.588-3.185-4.517-2.1-10.2,2.367-13.584,3.553-2.682,6.991-3.732,10.2-6.871l.076-.077c.328-.273.43-.756.1-.971-.039-.027-.1-.016-.145-.022l-.129.041-.049.016a11.133,11.133,0,0,0-1.572.991,4.045,4.045,0,0,1-1.469.753.362.362,0,0,1-.067.018c-1.2.311-1.742-.379-2.7-1.4-.021-.015-.123-.052-.155-.015l-.056.015c-2.051,1.685-3.763,3.4-6.111,2.7-.927-.28-2.679-2.343-1.293-2.665l.133-.053c2.392-.254,4.51-.91,5.79-2.45l.15-.271c-.075-.482.116.235-.538-1.7-.44-1.3-.425-3.467,1.655-4.16,2.2-.739,4.05-.7,5.321-2.743a4.148,4.148,0,0,0,1.558,1.473,2.228,2.228,0,0,0,2.61-1.005c.12,1.826,2.617,2.119,3.7,1.5a2.239,2.239,0,0,0,1.85,3.4c-.817.772-1.709,1.689-1.047,2.907a3.263,3.263,0,0,0,1.317,1.214c-1.955.574-1.885,2.39-.846,3.778a2,2,0,0,0-2,1.365,2.422,2.422,0,0,0,.267,1.987,2.313,2.313,0,0,0-1.956.952,2.513,2.513,0,0,0-.048,2.133,2,2,0,0,0-2,3.078,2.139,2.139,0,0,0-1.978,1.245,2.47,2.47,0,0,0,.875,2.177,2.067,2.067,0,0,0-1.3,2.586l.059.113a2.072,2.072,0,0,0,1.6,1.041c-.448-.007-.96,1.425-.5,2.078.7.895,1.019.747,1.623.965a2.879,2.879,0,0,0-.448,1.253l-.031.1c-.011,1.067,1.1,1.558,2.1,1.692-.311.679-.627,1.308-.268,1.988a2.371,2.371,0,0,0,2.111,1.1c-.047.522-.473.97-.3,1.539a2.357,2.357,0,0,0,2,1.542c-.279.673-.7,1.279-.418,1.985a1.859,1.859,0,0,0,1.574,1.138c-1.037.886-1.539,2.316.042,3.356a2.5,2.5,0,0,0-1.125,1.1m-46.646-3.922a1.089,1.089,0,0,0-.338-.21,1.229,1.229,0,0,0,.825-.362,1.059,1.059,0,0,0,.311-.759,1.019,1.019,0,0,0-.186-.582.982.982,0,0,0-.5-.384,3.337,3.337,0,0,0-1.013-.11h-1.365v3.974h.641V63.36h.377a.825.825,0,0,1,.514.137,3.205,3.205,0,0,1,.671.925l.352.626h.783l-.484-.778a4.549,4.549,0,0,0-.587-.788m-.847-.671h-.778v-1.2h.729a2.015,2.015,0,0,1,.644.069.583.583,0,0,1,.272.208.571.571,0,0,1-.105.756,1.255,1.255,0,0,1-.761.166m2.016-3.022a3.693,3.693,0,0,0-3.631,0,3.407,3.407,0,0,0-1.383,1.366,3.694,3.694,0,0,0-.007,3.688,3.449,3.449,0,0,0,1.368,1.368,3.712,3.712,0,0,0,3.676,0,3.432,3.432,0,0,0,1.365-1.368A3.71,3.71,0,0,0,212,61.155a3.391,3.391,0,0,0-1.38-1.366m1.263,3.218a3.107,3.107,0,0,1-.406,1.529,2.884,2.884,0,0,1-1.14,1.14,3.076,3.076,0,0,1-3.064,0,2.9,2.9,0,0,1-1.143-1.14,3.07,3.07,0,0,1,.007-3.074,2.861,2.861,0,0,1,1.153-1.14,3.071,3.071,0,0,1,3.027,0,2.841,2.841,0,0,1,1.153,1.14,3.128,3.128,0,0,1,.414,1.544" transform="translate(0 0)" fill="#002b48"/>
  </g>
</svg>
